<svg xmlns="http://www.w3.org/2000/svg" viewBox="0 0 48 48">
  <path fill="#FF9900" d="M24 0c13.255 0 24 10.745 24 24S37.255 48 24 48 0 37.255 0 24 10.745 0 24 0z"/>
  <path fill="#000" d="M30.514 35.612c-2.093 1.045-4.57 1.6-6.89 1.6-3.256 0-6.2-1.134-8.466-3.025-.442-.4-.049-1.047.485-.7 2.415 1.405 5.405 2.246 8.49 2.246 2.08 0 4.37-.432 6.49-1.325.505-.215.927.332.49.704z"/>
  <path fill="#000" d="M31.601 34.385c-.267-.342-1.77-.162-2.448-.081-.205.025-.237-.153-.052-.282 1.197-.842 3.162-.6 3.392-.317.23.284-.06 2.25-1.185 3.19-.172.145-.337.068-.26-.123.252-.63.817-2.045.55-2.387z"/>
  <path fill="#000" d="M28.884 25.445v-1.445c0-.22.168-.367.367-.367h6.514c.21 0 .377.15.377.367v1.24c-.005.21-.18.484-.494.92l-3.377 4.82h3.46c.21 0 .377.168.377.367v1.63c0 .21-.18.377-.377.377h-6.23c-.21 0-.377-.168-.377-.367v-1.24c0-.21.18-.484.494-.92l3.377-4.82h-3.46c-.21 0-.367-.168-.367-.367z"/>
</svg>
