<svg xmlns="http://www.w3.org/2000/svg" width="800" height="800" viewBox="0 0 32 32" xml:space="preserve"><path d="m9.8 19.86.117.016h.004zm.225.03-.098-.013-.005-.001zm4.844 7.046.077.01.057.008zm.134.018h.004zm14.871-8.212a.786.786 0 0 1-.283 1.077c-.196.115-.39.117-.607.079-.71-.12-1.415-.25-2.111-.434-.076.461-.165.919-.289 1.37a15 15 0 0 1-.622 1.75c.025.012.052.018.076.033.555.335 1.111.673 1.679.99.179.1.364.191.543.292.126.07.249.147.377.211l-.086-.036c.172.076.31.162.412.336a.78.78 0 0 1 .079.604c-.107.393-.56.688-.964.549-.392-.138-.736-.364-1.098-.562-.564-.31-1.133-.606-1.689-.927-.327.639-.704 1.253-1.177 1.793-.628.717-1.386 1.292-2.203 1.778-.438.261-.877.53-1.364.69a9 9 0 0 1-1.188.3c-.46.083-.926.147-1.394.181-.404.03-.807.024-1.211.017a18.4 18.4 0 0 1-2.848-.256 6.4 6.4 0 0 1-1.228-.34c-.443-.175-.9-.36-1.322-.581-.211-.111-.417-.232-.624-.351-.181-.104-.368-.202-.543-.317-.353-.23-.694-.477-1.032-.732-.392-.298-.77-.592-1.088-.969a6.8 6.8 0 0 1-.803-1.209c-.044-.083-.083-.167-.126-.25q-.191.099-.379.207c-.198.113-.402.215-.604.317l-1.565.785c-.206.104-.415.147-.643.085a.84.84 0 0 1-.498-.385c-.217-.368-.111-.945.298-1.141.539-.258 1.092-.487 1.631-.745q.332-.158.643-.354c.136-.087.266-.187.413-.251.023-.013.05-.009.073-.02a34 34 0 0 1-.3-.981c-.11-.391-.188-.791-.259-1.192-.013 0-.025.005-.038.004l.029.004-.036-.004-.046-.003c-.151-.007-.306.018-.456.036q-.379.047-.758.087c-.528.057-1.054.145-1.584.171-.432.023-.792-.377-.792-.792 0-.443.36-.775.792-.792.817-.03 1.627-.108 2.436-.212q.126-.018.251-.041l-.011-.091a19 19 0 0 1-.021-2.71c.005-.086.017-.171.023-.257-.326.013-.653.018-.979.028-.624.023-1.249.062-1.871.059A.9.9 0 0 1 2 14.75c0-.476.406-.902.89-.89.407.011.815.009 1.222.005l.649-.002c.388 0 .777.002 1.166-.015h.001c.047-.324.089-.648.151-.971.177-.928.458-1.822.785-2.708.328-.894.753-1.777 1.284-2.569.357-.534.73-1.054 1.222-1.473.389-.332.783-.673 1.207-.958.79-.528 1.679-.883 2.58-1.173a58 58 0 0 1 2.663-.805.91.91 0 0 1 .927.299c.58-.006 1.147.119 1.71.255.43.104.86.206 1.288.315.502.128.998.279 1.477.479.508.211.978.476 1.434.781.398.266.777.564 1.128.888.366.336.668.736.954 1.139.272.379.522.777.762 1.179.251.415.438.871.626 1.316.347.824.673 1.652.815 2.541q.118.741.213 1.486l.01.08c.369.002.737.008 1.106-.001.242-.004.484-.028.726-.028q.107 0 .213.007c.215.017.402.075.558.232.148.148.233.35.233.559a.8.8 0 0 1-.232.559c-.158.158-.341.211-.558.232-.313.026-.624-.004-.939-.004q-.507.002-1.015.011a31 31 0 0 1-.168 2.315c.763.23 1.529.426 2.315.55.191.03.376.201.471.361m-6.033-6.268-.534.235q.052.154.107.306c.14.291.294.566.48.829q.097.112.207.21.107.069.222.126.297.106.607.161c.178.014.354.009.532.001l-.015-.135c-.085-.628-.169-1.262-.321-1.879-.038-.155-.093-.305-.14-.457-.088.059-.174.122-.266.173-.287.158-.581.298-.879.43m-15.183-2.16c-.068.173-.129.35-.193.525q1.158.688 2.383 1.245c.781.281 1.574.486 2.396.613.825.094 1.66.124 2.49.124.779 0 1.548-.04 2.32-.131a14 14 0 0 0 1.675-.39c.493-.14.976-.302 1.451-.494a83 83 0 0 0 1.804-.796c.487-.223.956-.47 1.39-.78a8 8 0 0 0-.53-1.036 20 20 0 0 0-.772-1.155 6.6 6.6 0 0 0-.928-.925 8.7 8.7 0 0 0-1.498-.9c-.629-.246-1.277-.401-1.933-.557-.6-.142-1.199-.319-1.808-.419a6 6 0 0 0-.344-.003.84.84 0 0 1-.595-.24c-1.123.299-2.248.627-3.327 1.061a9 9 0 0 0-.897.45c-.236.139-.455.309-.673.477-.374.298-.74.601-1.05.966-.262.357-.518.719-.734 1.104-.231.412-.436.832-.627 1.261m8.682 10.579q.152-.076.289-.171.306-.26.568-.566.16-.228.287-.475.06-.167.096-.343c.022-.229.029-.453.011-.683a2 2 0 0 0-.051-.172 3 3 0 0 0-.234-.391 3 3 0 0 0-.149-.158 2 2 0 0 0-.158-.09 11 11 0 0 0-.649-.208c-.055-.016-.098-.051-.147-.077.018.323.04.646.053.969.034.791.042 1.582.063 2.373q.01-.005.021-.008m-1.616-2.668c-.18.087-.358.178-.527.287a2 2 0 0 0-.164.163 3 3 0 0 0-.243.426c-.056.156-.104.31-.139.471q-.006.133.005.264.035.165.088.325.073.142.162.273.117.13.248.246a2 2 0 0 0 .2.118q.227.077.46.129c-.007-.338-.01-.677-.018-1.015-.017-.564-.045-1.125-.072-1.687m-8.122-3.693c.014 0 .028-.009.042-.008.313.028.632.06.947.024l.188-.02q.19-.032.37-.094.172-.088.33-.196.224-.2.418-.43a3 3 0 0 0 .166-.282l.008-.025a26 26 0 0 1-1.166-.539c-.321-.161-.631-.34-.944-.517-.139.553-.24 1.116-.322 1.68-.016.137-.023.272-.037.407m1.792 9.502c.192.226.403.422.631.612l.232.169q.075-.05.147-.103a3 3 0 0 0 .257-.254q.12-.18.217-.375.13-.363.191-.743.011-.149.006-.298a4 4 0 0 0-.162-.564 4.5 4.5 0 0 0-.293-.538 2 2 0 0 0-.143-.145 2 2 0 0 0-.25-.142 3 3 0 0 0-.467-.112 4.5 4.5 0 0 0-.823-.02c-.237.042-.471.105-.704.165.078.233.14.472.231.7.15.318.304.632.472.94a6 6 0 0 0 .458.708m5.404 2.892-.02-.003-.056-.007zm.209.028.033.004-.177-.024q.579.063 1.158.092a39 39 0 0 1-.163-2.429c-.018-.661-.014-1.324-.018-1.987l-.139-.02a4.6 4.6 0 0 1-.904-.226c-.4-.155-.79-.406-1.068-.738-.315-.381-.581-.809-.679-1.301a3 3 0 0 1-.072-.854c.026-.3.094-.604.211-.883.128-.311.26-.604.46-.877.198-.275.438-.517.728-.7.283-.177.583-.317.885-.46q.171-.08.344-.104c-.032-.412-.056-.824-.098-1.235q-.045-.304-.095-.606c-.011-.065-.008-.124-.01-.185h-.04a41 41 0 0 1-1.213-.04 16 16 0 0 1-1.309-.126c-.396-.052-.784-.14-1.172-.238a3 3 0 0 1-.23.499 4 4 0 0 1-.517.662 3.26 3.26 0 0 1-1.305.878 3.2 3.2 0 0 1-.662.147l.098-.013-.295.04.08-.011c-.209.028-.422.06-.636.056a9 9 0 0 1-.56-.032c-.054-.004-.1-.022-.15-.032-.005.164-.016.328-.018.492-.009.852.051 1.693.147 2.54.039.262.108.521.162.782.397-.098.797-.198 1.206-.216l.122-.002c.271 0 .536.033.805.069l.009.001c.273.038.538.084.799.183.357.132.654.312.945.559.258.221.445.53.596.832.109.219.219.447.29.679.094.311.191.639.189.967a4.3 4.3 0 0 1-.273 1.434 3.3 3.3 0 0 1-.771 1.241c.206.124.409.252.624.357.251.123.507.236.762.348a7.8 7.8 0 0 0 1.782.459l-.061-.008.06.008-.034-.005.111.015.059.008.005.001q.001-.001-.001-.001m5.943-.747a3.7 3.7 0 0 1-.383-.534 4 4 0 0 1-.219-.426c-.098-.223-.209-.455-.262-.694a3.6 3.6 0 0 1-.072-1.177c.043-.375.098-.783.234-1.137.062-.164.123-.362.23-.507.124-.168.247-.33.398-.474s.315-.27.481-.394c.494-.364 1.039-.717 1.633-.885.673-.188 1.364-.257 2.059-.303q.129-.614.219-1.238c.086-.716.161-1.435.208-2.154.006-.087.005-.174.01-.261-.285.01-.57 0-.858-.042a4 4 0 0 1-.594-.134 3.4 3.4 0 0 1-.541-.209 3 3 0 0 1-.562-.379c-.187-.147-.332-.347-.47-.538-.117-.162-.238-.326-.336-.503a7 7 0 0 1-.384-.828c-.573.23-1.159.412-1.752.578-.694.196-1.394.326-2.112.394q-.468.043-.94.061c.086.573.142 1.148.182 1.726a.8.8 0 0 1 .452-.149q.11 0 .221.033.257.076.511.16c.428.147.849.326 1.151.677.183.211.373.439.5.69.113.224.215.455.268.7.04.177.058.375.06.558 0 .177-.006.356-.028.534-.028.217-.043.441-.111.653q-.077.24-.185.47a3 3 0 0 1-.315.522c-.17.223-.341.436-.539.634q-.119.114-.241.222a2.6 2.6 0 0 1-.56.413 4 4 0 0 1-.936.34c.003.226.016.451.018.677.008.781.021 1.558.074 2.337.033.48.08.959.128 1.439.33-.009.659-.026.988-.064a8.7 8.7 0 0 0 1.634-.385 9 9 0 0 0 .741-.403m3.247-3.835q.192-.47.364-.952c-.124.009-.249.013-.372.025a5 5 0 0 0-.972.226 7.5 7.5 0 0 0-1.002.615q-.145.125-.278.263-.045.07-.082.145c-.084.246-.138.5-.177.757q-.024.279 0 .557c.031.147.077.287.128.427.092.196.195.38.319.558q.1.118.205.233c.25-.229.488-.467.707-.733.469-.666.835-1.377 1.16-2.121M13.73 10.671c.447 0 .82-.373.82-.82s-.373-.82-.82-.82-.82.374-.82.82a.827.827 0 0 0 .82.82m4.344-.085a.8.8 0 0 0 .794-.794.8.8 0 0 0-.794-.794.8.8 0 0 0-.794.794c0 .432.362.794.794.794"/></svg>