<?xml version="1.0" standalone="no"?>
<svg version="1.0" xmlns="http://www.w3.org/2000/svg" width="512" height="512" viewBox="0 0 654.563759 686.826590"
        preserveAspectRatio="xMidYMid meet">
        <metadata> Created by Svg.la </metadata>
        <g transform="translate(-182.000000,790.826590) scale(0.100000,-0.100000)">
                <path d="M4506 7903 c-40 -10 -103 -58 -176 -133 -74 -75 -136 -171 -315 -485
-31 -55 -106 -186 -166 -291 -60 -105 -109 -199 -109 -210 0 -23 24 -59 164
-244 90 -118 116 -160 143 -232 18 -49 33 -93 33 -98 0 -6 -28 19 -62 55 -40
43 -83 77 -122 97 -92 46 -213 127 -296 199 l-75 64 -145 3 c-177 3 -178 4
-228 45 -39 33 -44 34 -153 40 -110 7 -115 6 -227 -30 -107 -34 -116 -39 -129
-70 -8 -20 -39 -53 -75 -81 -35 -26 -83 -66 -109 -89 -38 -36 -53 -43 -87 -43
-22 0 -43 -4 -47 -9 -3 -5 -47 -30 -98 -55 -84 -42 -96 -45 -144 -39 -47 5
-57 2 -100 -25 -26 -17 -74 -40 -106 -52 -51 -19 -57 -24 -57 -49 0 -16 6 -33
12 -38 7 -6 60 -13 118 -17 58 -4 119 -11 137 -17 27 -9 44 -4 126 31 98 42
130 46 222 30 45 -7 54 -6 88 17 l37 26 75 -32 c41 -17 80 -31 87 -31 7 0 49
34 94 74 80 74 81 75 120 66 60 -14 464 -155 509 -178 22 -11 74 -30 115 -42
82 -25 108 -45 173 -130 130 -172 182 -237 201 -254 21 -19 21 -19 -19 -13
-22 3 -98 19 -170 35 -71 16 -200 42 -286 58 l-157 27 -145 -109 c-80 -60
-183 -130 -229 -157 l-84 -47 -138 21 c-75 11 -148 18 -161 15 -14 -4 -77 -64
-145 -139 l-120 -132 0 -162 c0 -166 -6 -203 -39 -232 -24 -20 -45 -115 -32
-140 7 -12 3 -41 -10 -91 -10 -40 -19 -88 -19 -106 0 -28 4 -33 30 -39 25 -5
37 -1 65 23 32 29 95 52 179 68 l38 7 -5 43 c-2 25 -16 67 -29 94 -28 56 -27
58 38 131 17 20 37 54 44 75 33 108 41 122 72 128 16 3 47 19 68 36 45 36 81
50 126 50 26 0 43 9 74 39 30 29 60 45 122 65 103 32 180 47 191 36 12 -11
-14 -50 -34 -50 -21 0 -29 -9 -22 -26 9 -23 31 -16 90 26 31 22 66 40 77 40
12 0 89 18 171 40 83 22 162 40 178 40 15 0 127 -40 249 -90 121 -49 229 -90
239 -90 10 0 20 -4 24 -10 3 -5 -19 -58 -49 -118 l-55 -110 -44 -6 c-58 -9
-388 -25 -512 -26 -71 0 -107 -4 -121 -14 -12 -8 -65 -78 -118 -155 -133 -189
-242 -321 -267 -321 -22 0 -254 -114 -264 -129 -3 -6 -21 -63 -40 -128 -19
-65 -46 -146 -60 -180 -23 -59 -24 -67 -16 -195 7 -122 11 -140 45 -218 34
-79 36 -90 30 -155 -5 -61 -3 -73 15 -97 25 -32 26 -64 5 -118 -16 -41 -16
-41 24 -143 22 -56 46 -122 53 -147 12 -37 19 -46 41 -48 25 -3 31 3 60 62
l32 64 -27 36 c-30 39 -36 90 -11 100 13 5 15 17 9 74 -6 66 -6 68 35 131 l42
65 -26 75 c-14 42 -26 87 -26 101 0 14 20 59 45 100 34 56 45 85 45 116 0 28
5 44 15 48 21 8 19 28 -5 49 -30 25 -24 53 24 115 24 32 53 76 66 98 24 44 70
83 188 158 67 43 77 46 73 22 -1 -5 -6 -44 -12 -87 -5 -43 -16 -97 -24 -120
-10 -29 -15 -83 -15 -178 0 -137 -14 -281 -51 -534 -16 -113 -30 -165 -74
-284 -36 -96 -55 -161 -55 -190 0 -40 -7 -54 -67 -130 -38 -47 -98 -124 -134
-171 l-67 -85 -7 -331 c-6 -261 -10 -337 -22 -360 -11 -21 -13 -46 -8 -95 6
-61 3 -75 -35 -181 -36 -99 -43 -131 -49 -230 -4 -63 -5 -136 -3 -163 4 -42 7
-47 28 -47 30 0 89 24 99 40 4 6 2 17 -4 23 -38 38 7 162 137 375 62 101 112
194 112 206 0 12 32 69 70 128 64 98 70 111 70 160 1 87 25 195 78 348 69 200
146 404 183 486 26 58 31 80 30 137 -1 37 1 73 6 80 4 6 8 116 10 242 2 216 4
238 33 370 17 77 38 182 47 233 l16 93 99 49 c55 28 108 50 118 50 10 0 40 27
68 63 58 72 150 162 313 304 101 88 117 107 123 140 12 71 25 88 111 146 90
61 105 67 105 39 0 -36 -233 -783 -315 -1012 -110 -305 -195 -619 -195 -718 0
-67 34 -193 75 -278 47 -97 143 -238 198 -293 48 -46 61 -48 105 -11 l24 20
-40 45 c-46 52 -112 182 -137 268 -11 40 -15 76 -11 115 11 107 13 222 5 228
-27 17 10 116 132 352 61 117 78 142 96 142 19 0 23 7 28 48 3 26 19 115 36
197 16 83 42 210 56 283 14 73 28 130 31 128 3 -3 22 -73 43 -156 68 -270 104
-340 178 -340 33 0 44 6 69 36 16 19 46 74 67 122 66 154 82 154 145 5 56
-131 83 -163 139 -163 33 0 44 5 65 33 31 41 60 117 92 242 61 242 62 243 89
75 9 -58 27 -161 40 -230 13 -69 27 -150 30 -180 10 -94 13 -100 40 -100 14 0
25 -4 25 -10 0 -5 44 -101 97 -212 102 -214 100 -204 88 -338 -8 -82 -8 -83 1
-156 5 -44 2 -76 -11 -120 -24 -86 -102 -239 -142 -282 l-35 -37 27 -22 c45
-39 68 -31 128 44 134 169 204 313 237 488 19 100 -16 260 -155 705 -169 542
-317 1081 -302 1096 7 8 158 -91 203 -133 18 -17 24 -32 24 -64 0 -47 -17 -28
260 -289 74 -69 155 -152 181 -186 33 -42 59 -64 83 -71 19 -6 84 -39 144 -72
l109 -62 1 -82 c1 -45 7 -137 12 -205 9 -106 8 -142 -10 -275 -17 -125 -36
-234 -51 -292 -1 -5 1 -23 6 -39 4 -16 3 -50 -4 -80 -11 -47 -9 -58 14 -119
31 -83 145 -458 180 -592 14 -55 30 -148 34 -207 10 -118 14 -129 115 -262 24
-33 47 -75 51 -93 3 -18 60 -114 126 -213 121 -181 189 -314 169 -334 -5 -5
-10 -18 -10 -29 0 -20 53 -47 95 -47 24 0 25 3 25 58 0 31 -5 100 -10 153 -8
87 -14 106 -67 215 -55 113 -58 122 -56 187 2 52 -2 78 -17 107 -18 35 -20 68
-26 344 l-7 307 -114 170 -113 171 0 66 c0 37 -9 111 -20 165 -24 119 -25 185
-5 342 19 148 39 228 78 325 27 67 31 87 31 180 1 95 4 110 29 157 31 60 34
91 12 133 -22 43 -4 38 80 -18 51 -34 81 -64 111 -110 23 -34 60 -76 83 -92
44 -33 56 -53 66 -112 4 -26 16 -46 41 -66 32 -27 34 -32 22 -51 -7 -11 -16
-21 -20 -21 -14 0 -9 -21 11 -48 10 -15 33 -87 51 -160 l32 -132 117 0 c113 0
119 -1 154 -27 20 -16 63 -58 97 -95 49 -54 69 -68 98 -73 55 -9 101 -35 131
-75 33 -44 46 -54 100 -80 44 -21 44 -21 63 -2 20 19 20 20 -11 90 -17 39 -31
76 -31 82 0 7 -7 27 -15 45 -12 23 -26 35 -55 44 -54 16 -137 93 -150 140 -8
30 -21 45 -70 76 -33 21 -60 42 -60 46 0 4 -27 48 -60 98 -67 102 -79 141 -80
251 -1 91 -10 112 -122 279 l-83 124 -75 27 c-161 59 -180 72 -302 197 -64 65
-164 177 -223 250 l-106 131 -72 6 c-40 3 -182 10 -317 16 -348 16 -312 3
-371 133 -27 60 -49 111 -49 113 0 2 7 4 15 4 22 0 92 25 275 98 90 36 183 67
205 69 24 3 80 -5 140 -20 55 -14 132 -31 170 -37 52 -9 80 -20 110 -43 22
-17 42 -35 43 -39 6 -13 42 -9 42 5 0 6 -14 25 -30 41 -36 34 -33 41 18 38
106 -7 230 -57 279 -112 30 -33 43 -40 74 -40 54 0 87 -16 101 -47 7 -16 32
-59 56 -96 48 -76 38 -74 145 -31 54 21 63 22 147 12 152 -18 179 5 111 94
-46 62 -61 96 -61 143 0 27 -11 46 -53 92 -29 32 -74 85 -99 118 -79 103 -68
99 -220 91 -73 -4 -141 -7 -151 -7 -20 0 -163 98 -287 196 -47 37 -101 78
-120 91 l-35 23 -275 -50 c-151 -27 -291 -54 -310 -59 -56 -16 -63 -12 -35 18
15 15 83 102 151 194 l125 167 97 32 c53 17 120 44 148 60 29 16 101 48 160
70 218 82 303 106 419 114 l90 7 113 116 c61 64 115 124 117 134 3 9 -12 54
-35 101 -31 66 -59 105 -119 167 -71 75 -80 81 -99 71 -15 -8 -22 -21 -22 -40
0 -34 -14 -41 -85 -41 -52 0 -53 -1 -68 -39 -17 -41 -39 -51 -119 -51 -33 0
-48 -8 -89 -44 l-49 -44 -161 -7 -161 -8 -56 -49 c-80 -70 -191 -146 -297
-202 -67 -36 -105 -65 -150 -114 -32 -35 -61 -60 -63 -54 -9 29 95 208 214
367 70 94 131 180 137 192 11 26 -2 54 -161 333 -161 284 -321 549 -368 611
-51 66 -153 163 -197 186 -18 9 -53 17 -78 17 -59 1 -89 -23 -89 -71 0 -37 14
-54 102 -125 34 -27 65 -71 122 -172 l77 -136 -3 -167 -3 -168 -56 -110 -56
-110 22 -75 c13 -44 19 -79 14 -86 -10 -12 -148 -68 -154 -62 -2 2 3 24 12 49
21 57 13 79 -27 79 -16 0 -30 1 -30 3 0 1 7 24 15 51 8 27 15 59 15 72 0 31
-27 56 -53 48 -17 -5 -19 -3 -13 12 4 11 10 42 13 71 5 50 5 52 -21 59 -24 6
-26 10 -20 39 9 49 -3 75 -32 75 -25 0 -26 1 -19 63 6 52 4 67 -10 80 -23 24
-40 21 -64 -10 l-20 -28 -1 66 c0 37 -5 70 -12 77 -22 22 -48 13 -69 -23 -12
-19 -25 -35 -30 -35 -5 0 -9 31 -9 68 0 72 -10 92 -46 92 -16 0 -27 -13 -48
-59 -14 -32 -26 -63 -26 -69 0 -22 -41 -33 -112 -30 l-71 3 -31 75 c-33 78
-48 90 -87 70 -20 -11 -21 -17 -16 -76 7 -75 -5 -89 -34 -40 -15 25 -28 36
-45 36 -33 0 -48 -33 -40 -91 8 -55 1 -60 -29 -24 -19 24 -21 25 -42 10 -20
-14 -23 -25 -23 -85 0 -67 0 -69 -27 -72 -26 -3 -28 -7 -33 -58 -4 -40 -9 -55
-20 -55 -12 0 -15 -15 -15 -73 0 -64 -2 -72 -17 -69 -29 8 -41 -18 -35 -76 3
-28 8 -62 12 -74 6 -18 3 -22 -22 -25 -25 -3 -28 -7 -28 -38 1 -19 4 -45 9
-57 5 -17 4 -23 -8 -23 -26 0 -136 52 -136 65 0 6 9 38 20 70 26 77 26 84 -14
164 -70 138 -76 169 -66 335 l9 148 78 131 c62 103 90 140 138 179 80 66 95
85 95 118 0 52 -62 81 -134 63z m43 -66 c11 -14 5 -27 -12 -27 -5 0 -6 7 -3
16 5 12 2 15 -9 10 -9 -3 -13 -2 -10 4 8 14 20 12 34 -3z m1201 -7 c0 -5 7
-10 16 -10 8 0 12 5 9 10 -3 6 1 10 11 10 14 0 14 -3 4 -15 -15 -18 -51 -16
-58 3 -2 6 1 12 7 12 6 0 11 -4 11 -10z m-615 -592 c17 0 53 3 81 7 50 7 51 7
87 -36 41 -47 53 -90 16 -52 l-22 22 -51 -20 c-58 -23 -168 -23 -247 1 -42 12
-49 12 -64 -3 -43 -44 -18 12 29 61 30 33 33 34 86 27 30 -4 69 -7 85 -7z
m311 -90 c18 -34 18 -38 -1 -38 -24 0 -55 38 -55 67 0 15 -10 38 -22 52 -13
14 -3 8 20 -14 24 -22 50 -52 58 -67z m-1391 42 c-3 -10 -12 -47 -20 -82 -8
-37 -14 -51 -14 -35 -2 47 -23 27 -68 -64 -24 -46 -54 -96 -68 -112 -14 -15
-25 -32 -25 -37 0 -14 24 -12 38 2 9 9 12 9 12 0 0 -11 -61 -42 -82 -42 -5 0
10 35 33 78 123 223 217 366 194 292z m805 -20 c-9 -47 -8 -45 -37 -54 -21 -7
-22 -5 -12 22 9 25 43 72 53 72 2 0 0 -18 -4 -40z m1468 -93 c29 -48 73 -126
98 -173 48 -88 47 -94 -15 -73 -38 13 -41 28 -4 21 l27 -5 -22 34 c-13 19 -41
68 -62 109 -41 78 -62 110 -74 110 -7 0 2 -156 11 -180 4 -11 7 -9 12 9 l6 23
28 -28 c32 -31 23 -44 -30 -44 -38 0 -38 3 -48 169 -3 57 -9 118 -12 135 l-6
31 20 -25 c10 -14 43 -65 71 -113z m-1106 23 l60 0 -49 -46 c-45 -43 -46 -45
-20 -41 26 4 26 3 12 -13 -8 -9 -15 -30 -15 -47 0 -39 38 -56 109 -51 54 3 61
-4 36 -39 -25 -35 -79 -63 -124 -63 -59 0 -52 -26 13 -47 17 -5 32 -15 34 -21
5 -15 -57 -42 -98 -42 -16 0 -30 -4 -30 -9 0 -11 25 -21 51 -21 26 0 24 -6
-13 -39 -42 -38 -30 -50 28 -28 l45 16 -6 -22 c-20 -66 -40 -92 -83 -106 -36
-11 -51 -11 -89 0 -39 10 -48 18 -64 53 -10 23 -19 49 -19 59 0 16 2 16 31 2
17 -9 38 -14 46 -10 14 5 12 10 -10 33 -34 35 -34 38 3 46 38 7 39 26 1 26
-38 0 -88 18 -95 35 -3 9 8 18 32 26 71 23 79 49 14 49 -58 0 -132 51 -132 90
0 14 9 16 53 13 68 -5 101 12 105 54 3 25 -3 35 -26 52 -17 12 -46 21 -66 21
-20 0 -36 5 -36 10 0 15 41 12 74 -5 15 -8 37 -15 48 -15 18 0 19 2 7 17 -8 9
-27 24 -43 34 l-29 18 39 6 c21 4 44 8 49 11 6 2 30 1 54 -1 24 -3 71 -5 103
-5z m118 -60 c0 -5 -13 -10 -29 -10 -16 0 -38 -2 -48 -5 -10 -3 -4 1 12 9 35
18 65 20 65 6z m-1320 -85 l0 -65 -29 0 c-42 0 -47 15 -17 51 14 17 29 41 32
55 10 39 14 28 14 -41z m1402 8 l-10 -38 -1 50 c-1 36 2 46 10 38 8 -8 8 -22
1 -50z m-573 10 c0 -31 -2 -34 -9 -18 -12 28 -12 55 0 55 6 0 10 -17 9 -37z
m640 -82 c-17 -100 -36 -156 -85 -265 l-22 -48 -16 30 c-22 43 -20 59 13 101
38 49 55 84 81 166 26 83 42 127 45 123 2 -2 -6 -50 -16 -107z m-659 -111 c7
-14 28 -46 47 -72 l34 -47 -22 -48 c-17 -37 -23 -43 -26 -28 -3 11 -13 40 -24
64 -40 86 -58 139 -73 214 -26 126 -18 142 18 37 18 -52 38 -106 46 -120z
m-123 88 c-3 -8 -6 -5 -6 6 -1 11 2 17 5 13 3 -3 4 -12 1 -19z m850 0 c-3 -8
-6 -5 -6 6 -1 11 2 17 5 13 3 -3 4 -12 1 -19z m-1517 -27 c0 -5 -12 -19 -27
-31 -22 -17 -25 -23 -13 -30 8 -6 21 -10 28 -10 20 0 14 -16 -11 -29 -26 -14
-133 -11 -130 3 0 5 23 21 50 35 26 14 50 29 51 34 12 26 52 48 52 28z m2260
-43 c0 -4 -11 -2 -25 4 -15 6 -25 20 -25 31 0 20 1 19 25 -3 14 -13 25 -27 25
-32z m-676 -86 c5 -15 -2 -37 -21 -69 l-28 -48 -7 50 c-8 67 -10 170 -2 178 7
6 44 -65 58 -111z m-930 -13 l-9 -103 -28 43 c-31 47 -31 74 5 145 31 62 42
34 32 -85z m1667 70 c27 -12 49 -25 49 -29 0 -11 -102 -22 -125 -14 -45 16
-48 27 -13 45 41 22 31 23 89 -2z m1153 13 c13 -22 -17 -37 -82 -42 -66 -5
-69 -4 -62 15 5 14 20 22 46 26 60 9 92 10 98 1z m-2019 -121 c-7 -71 -21
-104 -59 -140 -23 -21 -26 -22 -32 -7 -3 9 8 56 26 104 17 48 37 102 43 119
11 31 12 32 20 10 5 -12 6 -51 2 -86z m-671 -43 c18 -50 27 -92 23 -103 -7
-17 -8 -17 -29 1 -37 33 -58 93 -58 169 l0 70 18 -27 c9 -14 30 -64 46 -110z
m-719 2 l36 -85 -30 35 c-17 19 -30 32 -31 28 0 -4 -8 -1 -17 6 -10 8 -33 27
-50 41 -43 35 -41 49 5 72 32 16 38 16 44 3 3 -8 22 -53 43 -100z m2199 76
l28 -11 -76 -63 c-47 -38 -76 -56 -76 -47 0 8 12 44 26 80 29 71 26 70 98 41z
m1203 -46 c19 -14 41 -20 79 -20 30 0 54 -4 54 -9 0 -21 -68 -106 -97 -122
-29 -16 -32 -17 -46 -1 -11 13 -37 128 -37 166 0 12 23 5 47 -14z m-3502 -53
c67 -33 122 -91 166 -173 36 -70 69 -101 49 -48 -20 51 -3 34 42 -43 56 -95
62 -114 44 -138 -23 -32 -45 -10 -93 92 -37 79 -61 114 -126 183 -43 47 -102
110 -131 140 -28 30 -40 45 -26 33 14 -11 48 -32 75 -46z m3445 34 c0 -10 -7
-22 -16 -25 -23 -9 -24 -8 -24 19 0 18 5 25 20 25 13 0 20 -7 20 -19z m-4550
-18 c0 -10 3 -40 6 -68 6 -48 5 -51 -26 -68 -19 -12 -29 -24 -26 -33 3 -8 1
-14 -5 -14 -16 0 -7 163 10 183 18 22 41 22 41 0z m3398 -35 c-12 -18 -65 -74
-117 -125 -84 -83 -97 -100 -127 -175 -19 -45 -40 -88 -47 -96 -20 -19 -47 -4
-47 25 0 23 75 173 86 173 3 0 2 -4 -1 -10 -7 -12 -3 -12 20 -4 9 4 27 27 40
53 35 69 85 121 151 157 32 17 60 32 62 33 2 0 -7 -14 -20 -31z m-3478 -65 c0
-108 -17 -144 -39 -83 -7 22 -16 30 -34 30 -27 0 -43 36 -32 71 7 22 51 48 83
49 21 0 22 -4 22 -67z m4558 26 l1 -42 -122 7 c-67 4 -138 11 -157 15 -31 6
-22 10 80 29 63 12 133 23 155 25 22 2 41 4 41 5 1 1 2 -17 2 -39z m81 10 c16
-46 14 -49 -19 -49 -26 0 -30 4 -30 28 0 26 15 52 31 52 4 0 12 -14 18 -31z
m-4295 -6 c44 -5 47 -7 26 -15 -32 -12 -240 -39 -250 -33 -14 9 2 46 24 56 20
9 94 6 200 -8z m1816 -23 l24 -35 -27 24 c-15 14 -27 21 -27 16 0 -5 -2 -6 -5
-3 -3 3 -3 13 1 22 4 9 7 16 8 14 2 -2 13 -19 26 -38z m350 7 c0 -12 -4 -17
-8 -12 -8 13 -22 13 -42 1 -8 -5 -4 3 10 16 28 29 40 27 40 -5z m-1920 -23 c0
-3 -26 -17 -57 -31 -41 -19 -77 -27 -132 -30 -83 -3 -81 -2 59 40 82 25 130
33 130 21z m3600 -25 c36 -10 90 -23 120 -28 l55 -9 -87 -1 c-63 -1 -101 4
-135 17 -26 11 -56 22 -66 25 -27 10 -12 25 20 20 16 -3 57 -13 93 -24z
m-1795 -38 c-8 -17 -21 -33 -27 -37 -8 -5 -7 1 3 16 8 14 19 31 23 38 15 25
16 11 1 -17z m2320 9 c0 -22 -29 -18 -33 3 -3 14 1 18 15 15 10 -2 18 -10 18
-18z m-2205 0 c0 -5 -2 -10 -4 -10 -3 0 -8 5 -11 10 -3 6 -1 10 4 10 6 0 11
-4 11 -10z m-2580 -14 c0 -20 -5 -22 -152 -82 -201 -82 -529 -175 -613 -173
-45 1 -47 2 -20 9 17 5 75 19 130 31 170 37 551 169 620 216 25 17 35 16 35
-1z m850 -51 c82 -77 145 -119 214 -141 78 -25 87 -39 32 -53 -77 -19 -152
-14 -199 13 -65 38 -160 72 -307 111 -74 20 -153 43 -175 52 -98 38 -98 37 30
45 66 4 147 13 180 22 33 8 82 15 108 15 45 1 51 -2 117 -64z m604 49 c3 -8 2
-12 -4 -9 -6 3 -10 10 -10 16 0 14 7 11 14 -7z m-1201 -1 c-18 -2 -48 -2 -65
0 -18 2 -4 4 32 4 36 0 50 -2 33 -4z m2063 -20 c-7 -7 -26 7 -26 19 0 6 6 6
15 -2 9 -7 13 -15 11 -17z m1901 6 c64 -18 94 -20 168 -15 l90 6 -35 -20 c-33
-18 -181 -68 -315 -105 -33 -9 -111 -39 -174 -67 -113 -49 -116 -50 -185 -43
-134 12 -141 21 -49 55 69 26 168 91 242 160 54 49 56 50 118 50 34 0 98 -10
140 -21z m-1161 -129 c49 -84 53 -100 23 -100 -11 0 -29 -5 -40 -10 -17 -9
-19 -7 -19 18 0 31 -28 120 -54 169 -8 17 -12 33 -9 37 12 11 54 -38 99 -114z
m-1266 107 c0 -1 -13 -34 -30 -72 -16 -39 -30 -87 -30 -107 0 -37 -1 -37 -32
-31 -18 3 -37 10 -42 14 -20 18 89 199 120 199 8 0 14 -1 14 -3z m70 -8 c0 -6
-7 -38 -15 -71 -9 -33 -17 -88 -18 -123 -2 -71 -12 -72 -42 -5 -17 39 -18 44
-2 93 9 29 26 67 37 85 19 32 40 43 40 21z m1080 -51 c36 -75 38 -124 8 -181
l-22 -42 -8 90 c-4 50 -14 114 -22 143 -12 45 -12 52 0 52 8 0 28 -28 44 -62z
m-2933 46 c-3 -3 -12 -4 -19 -1 -8 3 -5 6 6 6 11 1 17 -2 13 -5z m1928 -16
c25 -11 26 -15 20 -53 -4 -22 -12 -78 -19 -125 -10 -73 -14 -85 -32 -88 -43
-6 -57 93 -29 202 22 84 20 82 60 64z m932 -45 c23 -73 22 -173 -1 -207 -34
-52 -55 -26 -56 69 0 28 -6 78 -13 112 -13 59 -12 62 7 72 37 18 45 12 63 -46z
m-767 15 c39 -24 26 -37 -16 -16 -27 13 -45 38 -27 38 4 0 24 -10 43 -22z
m600 4 c0 -10 -44 -32 -62 -32 -6 0 -3 9 7 20 18 20 55 28 55 12z m-481 -51
c13 -27 21 -55 19 -62 -2 -7 -16 13 -31 45 -30 62 -31 66 -19 66 5 0 19 -22
31 -49z m351 39 c0 -17 -37 -85 -53 -99 -13 -10 -13 -7 0 30 7 23 18 50 24 61
10 19 29 25 29 8z m-257 -38 c30 -33 47 -102 47 -186 l-1 -81 -26 60 c-28 66
-63 180 -63 207 0 23 22 23 43 0z m160 11 c6 -10 -27 -139 -55 -216 l-23 -62
-3 92 c-2 71 1 100 14 125 28 56 55 80 67 61z m-431 -35 c27 -18 48 -38 48
-44 0 -6 -12 -21 -26 -35 -14 -13 -40 -44 -56 -68 -36 -50 -48 -43 -48 31 0
49 19 148 29 148 3 0 27 -15 53 -32z m732 -5 c9 -60 7 -183 -4 -183 -5 0 -10
4 -10 9 0 5 -22 36 -50 69 -27 33 -50 65 -50 71 0 10 86 70 101 71 4 0 9 -17
13 -37z m-2755 4 l63 -13 -54 -46 -55 -47 -64 26 c-35 14 -68 29 -73 33 -7 7
38 32 94 53 20 7 16 7 89 -6z m2206 -192 c24 -49 43 -91 41 -92 -1 -1 -43 15
-94 35 -70 28 -90 41 -86 52 3 8 13 40 21 70 25 91 22 88 49 55 13 -16 44 -70
69 -120z m417 57 c9 -42 15 -78 14 -80 -6 -5 -170 -72 -172 -69 -1 1 16 40 37
86 41 89 87 157 98 146 3 -4 14 -41 23 -83z m944 -3 c-1 -55 32 -81 103 -83
28 -1 51 -2 51 -3 0 -6 -66 -34 -160 -68 -58 -21 -127 -49 -154 -62 -29 -15
-52 -21 -58 -15 -8 8 92 60 151 77 18 6 20 9 10 16 -8 5 -23 9 -34 9 -27 0
-157 -89 -149 -102 4 -6 1 -9 -6 -6 -29 9 -19 28 35 62 75 49 138 108 175 167
18 27 33 49 34 49 2 0 2 -19 2 -41z m-2203 -143 c95 -72 102 -94 10 -27 -78
57 -114 69 -132 47 -11 -13 -8 -16 16 -22 39 -9 168 -77 155 -82 -6 -2 -41 10
-79 26 -37 16 -117 46 -178 67 -143 49 -154 60 -65 61 83 1 110 18 110 72 l0
34 43 -58 c24 -33 78 -86 120 -118z m694 137 c-13 -46 -25 -63 -43 -63 -22 0
-16 23 17 63 17 20 32 37 34 37 2 0 -2 -17 -8 -37z m627 -16 c23 -32 25 -38
11 -43 -22 -9 -32 3 -44 55 -10 46 -10 46 33 -12z m-1554 28 c0 -22 -44 -37
-75 -25 -47 18 -26 36 43 39 22 1 32 -3 32 -14z m2599 -10 c12 -13 -20 -26
-55 -23 -29 2 -40 8 -42 22 -4 17 0 18 44 12 26 -3 50 -8 53 -11z m-2072 -44
l22 -18 -19 -39 c-11 -21 -20 -45 -20 -54 0 -13 -1 -13 -10 0 -11 18 -14 130
-2 130 4 -1 17 -9 29 -19z m1429 -18 c-3 -21 -6 -53 -6 -72 0 -42 -9 -35 -32
27 -18 47 -18 47 3 65 33 27 42 21 35 -20z m-1168 -25 c6 -7 14 -31 18 -53 7
-37 6 -39 -10 -26 -19 16 -46 63 -46 81 0 14 25 13 38 -2z m912 7 c0 -13 -40
-83 -54 -94 -13 -11 -16 -11 -16 0 0 27 20 83 32 91 15 9 38 11 38 3z m-824
-37 c-3 -13 -6 -26 -6 -30 0 -5 -4 -8 -10 -8 -5 0 -10 14 -10 30 0 21 5 30 16
30 12 0 15 -6 10 -22z m719 11 c8 -12 -2 -59 -13 -59 -4 0 -13 12 -19 27 -10
21 -10 28 0 35 16 11 25 10 32 -3z m-947 -21 c6 -6 12 -19 12 -30 0 -27 -68
-163 -92 -185 -19 -17 -20 -17 -34 2 -21 29 -17 86 12 151 14 33 31 65 36 72
11 13 43 8 66 -10z m1245 -46 c40 -101 34 -203 -10 -176 -20 12 -64 95 -87
162 l-15 43 32 19 c18 11 37 20 43 20 6 0 23 -30 37 -68z m-918 44 l30 -12
-52 -11 c-29 -5 -51 -7 -49 -4 2 3 6 14 9 24 7 20 21 21 62 3z m553 2 c7 -7
12 -16 12 -20 0 -10 -49 -9 -75 2 -19 8 -19 8 5 18 33 14 44 14 58 0z m-428
-67 c45 -32 51 -61 56 -242 3 -134 2 -169 -9 -169 -20 0 -89 75 -171 189 -80
109 -105 166 -86 201 9 17 25 24 105 43 31 8 78 -2 105 -22z m366 18 c130 -26
131 -75 3 -245 -87 -116 -135 -171 -162 -186 -19 -10 -20 -7 -15 163 5 191 17
237 67 264 32 18 34 18 107 4z m-997 -207 c14 -26 14 -26 -56 -6 -30 9 -57 22
-60 30 -7 20 10 65 49 124 l33 51 11 -89 c6 -48 16 -98 23 -110z m1618 70 c20
-53 12 -63 -65 -86 -51 -15 -54 -14 -47 2 13 32 35 147 35 182 l0 35 30 -45
c17 -25 37 -64 47 -88z m-1347 68 c11 -23 18 -45 15 -51 -6 -9 -98 -59 -110
-59 -3 0 -5 7 -5 15 0 22 58 135 70 135 5 0 19 -18 30 -40z m1038 -24 c47 -94
41 -105 -33 -63 -36 21 -40 27 -39 60 1 34 17 67 33 67 4 0 21 -29 39 -64z
m-1532 -22 c9 3 12 1 9 -4 -10 -16 -38 -11 -65 11 l-25 20 33 -16 c19 -9 40
-14 48 -11z m2074 21 c0 -8 -82 -47 -87 -41 -3 3 12 14 33 24 41 21 54 25 54
17z m-1470 -148 c27 -40 75 -94 106 -121 47 -41 124 -141 124 -160 0 -10 -37
9 -150 77 -157 96 -157 95 -165 177 -7 68 5 117 25 105 5 -3 32 -38 60 -78z
m830 -7 c0 -103 8 -95 -260 -255 -30 -18 -57 -32 -59 -30 -9 10 52 90 139 180
52 55 107 118 120 140 45 74 60 66 60 -35z m-937 -89 c-4 -6 -83 60 -93 80 -9
16 -4 22 37 43 l48 24 5 -71 c3 -40 5 -74 3 -76z m1016 123 c22 -8 42 -22 45
-29 5 -13 -78 -95 -96 -95 -5 0 -8 11 -8 24 0 31 12 116 16 116 2 0 21 -7 43
-16z m-1252 -85 c18 -12 40 -34 48 -50 l15 -29 -51 -26 c-28 -14 -55 -22 -59
-17 -11 11 -70 149 -70 162 0 13 70 -11 117 -40z m1519 -52 c-19 -43 -38 -77
-41 -77 -15 0 -105 43 -105 50 0 22 61 76 115 101 75 36 78 28 31 -74z m-2596
15 c-17 -6 -44 24 -35 39 6 9 13 6 27 -12 14 -16 16 -25 8 -27z m3643 -1 c-3
-11 -13 -21 -24 -24 -12 -3 -17 -1 -12 6 22 39 45 50 36 18z m-3448 -41 c31
-28 70 -53 86 -57 l30 -6 -40 -17 c-21 -10 -72 -41 -112 -69 -93 -66 -107 -66
-74 -1 20 40 25 64 25 125 0 92 8 95 85 25z m1113 -24 c-5 -34 -34 -30 -57 7
-32 52 -27 61 19 36 30 -17 40 -29 38 -43z m1028 14 c-14 -22 -30 -40 -35 -40
-13 0 -24 37 -16 50 7 12 68 39 74 34 2 -2 -8 -22 -23 -44z m1177 -7 c-11 -67
-8 -131 10 -180 8 -24 11 -43 7 -43 -4 0 -36 21 -70 48 -35 26 -76 57 -92 68
l-29 21 28 18 c16 10 51 40 78 67 65 62 79 63 68 1z m-3493 9 c29 -24 22 -57
-22 -107 -41 -47 -70 -61 -175 -86 -132 -30 -255 -60 -278 -66 -68 -19 232
182 370 248 71 34 76 35 105 11z m410 -27 c30 -7 44 -13 30 -13 -24 0 -115 25
-95 27 6 0 35 -6 65 -14z m1010 -31 c94 -49 144 -95 174 -159 14 -29 26 -58
26 -64 0 -20 -56 -41 -87 -32 -81 23 -169 99 -177 153 -12 76 -16 138 -10 138
3 0 37 -16 74 -36z m777 -39 c-7 -91 -25 -125 -93 -171 -73 -48 -97 -55 -134
-42 -33 11 -62 59 -40 66 6 2 19 21 30 42 24 46 87 100 172 146 35 18 65 34
67 34 2 0 1 -34 -2 -75z m1511 41 c130 -66 366 -236 327 -236 -27 0 -374 94
-405 110 -22 11 -44 33 -54 54 -16 35 -21 87 -9 99 16 16 79 4 141 -27z m-443
15 c-6 -10 -107 -35 -190 -46 -89 -12 -41 4 69 24 60 11 111 22 114 25 9 9 14
7 7 -3z m-2752 -8 c-7 -2 -21 -2 -30 0 -10 3 -4 5 12 5 17 0 24 -2 18 -5z m-4
-29 c45 -10 12 -16 -116 -20 -119 -5 -127 -4 -108 11 11 9 19 20 18 24 -2 7
161 -5 206 -15z m54 19 c-7 -2 -19 -2 -25 0 -7 3 -2 5 12 5 14 0 19 -2 13 -5z
m265 -1 c9 -6 -5 -19 -45 -45 -32 -19 -67 -44 -76 -55 -15 -16 -24 -18 -50
-12 -18 5 -68 14 -112 20 -150 20 -159 24 -66 30 85 5 91 8 105 53 5 15 19 17
118 17 62 0 119 -4 126 -8z m316 -14 c3 -13 6 -33 6 -46 0 -25 -46 -122 -58
-122 -9 0 -52 117 -52 141 0 10 16 23 38 32 50 21 59 21 66 -5z m1335 1 c17
-6 31 -17 31 -24 0 -29 -53 -155 -62 -149 -12 7 -58 104 -58 121 0 6 4 23 10
37 10 29 30 32 79 15z m506 -15 c13 -5 14 -8 3 -15 -10 -7 -10 -12 4 -26 13
-12 41 -19 95 -23 89 -6 80 -12 -52 -34 -157 -26 -152 -27 -228 34 -37 29 -67
57 -67 62 0 9 220 11 245 2z m317 -30 c15 -8 28 -17 28 -19 0 -3 -39 -3 -87 0
-184 12 -218 24 -100 36 74 8 121 3 159 -17z m-2482 -34 c-33 -26 -48 -26 -25
0 10 11 25 20 34 20 12 0 9 -6 -9 -20z m157 -67 c12 -43 19 -81 16 -85 -2 -5
-33 -8 -69 -8 -59 0 -65 2 -76 24 -9 22 -5 31 42 85 29 34 56 61 60 61 4 0 16
-35 27 -77z m1735 -92 c-15 -22 -20 -23 -86 -17 -38 4 -71 8 -73 9 -1 2 4 21
12 43 8 21 19 59 26 83 l11 45 63 -70 c60 -67 62 -70 47 -93z m53 134 c22 -18
26 -24 13 -25 -9 0 -30 11 -45 25 -38 33 -8 33 32 0z m-1035 -4 c5 -11 10 -30
10 -43 -1 -19 -4 -16 -20 16 -23 46 -23 46 -10 46 5 0 14 -9 20 -19z m99 -25
c-24 -41 -29 -44 -29 -16 0 20 37 66 46 57 3 -2 -5 -21 -17 -41z m-2279 19
c-19 -23 -167 -112 -217 -131 -42 -16 -44 -16 -58 2 -25 32 -17 43 43 59 98
27 146 43 192 64 56 24 55 24 40 6z m2367 9 c-3 -3 -12 -4 -19 -1 -8 3 -5 6 6
6 11 1 17 -2 13 -5z m-668 -88 c22 -40 58 -91 80 -111 45 -43 45 -57 -2 -48
-49 9 -98 37 -140 80 l-38 39 26 57 c13 31 27 57 29 57 2 0 22 -33 45 -74z
m1120 18 c11 -31 21 -60 21 -65 0 -14 -59 -67 -95 -86 -33 -18 -105 -34 -105
-24 0 4 19 29 41 56 23 28 55 78 72 113 17 34 34 62 38 62 3 0 16 -25 28 -56z
m-3169 42 c0 -2 11 -29 25 -60 25 -56 25 -56 5 -73 -11 -10 -20 -25 -20 -35 0
-26 -6 -23 -60 32 l-48 49 35 46 c20 25 42 45 49 45 8 0 14 -2 14 -4z m143 -3
c-7 -2 -19 -2 -25 0 -7 3 -2 5 12 5 14 0 19 -2 13 -5z m-63 -7 c0 -3 -4 -8
-10 -11 -5 -3 -10 -1 -10 4 0 6 5 11 10 11 6 0 10 -2 10 -4z m4899 -66 c6 0
29 -7 51 -16 30 -12 40 -22 40 -38 0 -13 -3 -25 -6 -29 -9 -8 -108 45 -164 88
-25 19 -54 41 -65 50 -11 8 15 -1 57 -20 42 -19 81 -35 87 -35z m198 8 c6 -13
29 -48 52 -78 22 -30 41 -57 41 -60 -1 -3 -24 -16 -53 -29 -29 -13 -60 -31
-70 -40 -16 -13 -20 -13 -27 -1 -5 8 -5 21 -1 29 5 8 1 28 -11 51 -22 40 -22
39 27 118 24 38 29 39 42 10z m-2687 -13 c0 -8 -7 -15 -16 -15 -14 0 -14 3 -4
15 7 8 14 15 16 15 2 0 4 -7 4 -15z m190 -9 c14 -18 14 -19 -8 -7 -12 7 -20
17 -16 22 3 6 7 9 8 7 1 -2 8 -12 16 -22z m-2719 -90 c26 -35 37 -66 24 -66
-3 0 -22 10 -43 23 -20 12 -54 31 -74 41 -21 11 -38 23 -38 27 0 4 12 16 27
27 25 18 29 19 52 4 13 -9 37 -34 52 -56z m2112 -68 c33 -16 57 -31 55 -34 -9
-9 -125 28 -161 52 -35 23 -97 97 -97 116 0 5 33 -16 72 -47 40 -32 99 -70
131 -87z m1175 85 c-40 -56 -85 -88 -142 -104 -130 -36 -137 -30 -28 23 42 21
102 58 132 83 30 24 59 44 63 45 5 0 -6 -21 -25 -47z m-1003 -13 c18 -8 17 -9
-7 -9 -15 -1 -30 4 -33 9 -7 12 12 12 40 0z m-2205 -15 c0 -8 -7 -15 -15 -15
-16 0 -20 12 -8 23 11 12 23 8 23 -8z m2875 5 c-27 -12 -35 -12 -35 0 0 6 12
10 28 9 24 0 25 -1 7 -9z m2164 -29 c8 -5 9 -11 3 -15 -5 -3 -15 1 -22 9 -14
16 -3 20 19 6z m-2749 -26 c-41 -14 -79 -24 -85 -24 -17 1 119 47 140 48 11 0
-14 -11 -55 -24z m505 4 c37 -11 65 -22 62 -25 -2 -2 -37 6 -78 20 -41 13 -69
24 -63 25 7 1 42 -8 79 -20z m-2927 1 c21 0 8 -45 -74 -253 -81 -206 -149
-348 -138 -287 4 19 10 41 15 50 14 25 99 250 124 328 26 80 33 140 20 161 -6
11 -3 13 16 8 13 -4 30 -7 37 -7z m2562 -25 c-20 -21 -21 -25 -6 -31 9 -3 16
-13 16 -21 0 -11 7 -13 24 -9 23 6 24 4 17 -22 -13 -44 -57 -125 -79 -145 -17
-16 -26 -17 -61 -7 -71 19 -161 78 -161 106 0 22 51 74 89 91 108 47 148 63
165 63 18 0 18 -2 -4 -25z m327 -25 c105 -52 131 -79 119 -123 -12 -48 -154
-102 -211 -81 -19 8 -69 104 -80 154 -7 31 -6 33 8 22 13 -11 19 -10 36 5 25
21 27 41 6 49 -8 4 -15 10 -15 15 0 19 43 7 137 -41z m-157 20 c0 -5 -2 -10
-4 -10 -3 0 -8 5 -11 10 -3 6 -1 10 4 10 6 0 11 -4 11 -10z m2642 -17 c53 -43
135 -117 118 -108 -8 4 -50 32 -92 62 -43 29 -82 53 -88 53 -5 0 -10 5 -10 10
0 19 37 10 72 -17z m-5312 3 c0 -2 -8 -10 -17 -17 -16 -13 -17 -12 -4 4 13 16
21 21 21 13z m5230 0 c0 -3 -4 -8 -10 -11 -5 -3 -10 -1 -10 4 0 6 5 11 10 11
6 0 10 -2 10 -4z m-2649 -181 c-13 -95 -19 -115 -32 -115 -18 0 -21 30 -10 78
15 61 43 134 48 128 3 -3 0 -43 -6 -91z m418 74 c-16 -10 -23 -4 -14 10 3 6
11 8 17 5 6 -4 5 -9 -3 -15z m-338 -77 c21 -64 19 -117 -4 -109 -15 5 -35 87
-36 152 -1 60 9 49 40 -43z m2481 69 c13 -5 35 -12 51 -15 15 -4 27 -11 27
-16 0 -6 -12 -15 -27 -20 -16 -6 -35 -14 -45 -19 -13 -8 -21 -2 -42 29 -14 22
-26 42 -26 45 0 8 37 6 62 -4z m-3372 -210 l-128 -129 -89 -7 c-48 -3 -106 -8
-128 -12 -55 -7 -36 9 42 37 68 25 87 41 97 84 l7 29 -78 -6 c-43 -4 -121 -9
-173 -11 -125 -7 -40 7 145 24 72 6 143 14 158 17 17 3 66 41 119 90 l91 85
33 -36 33 -36 -129 -129z m1830 1 c46 -14 194 -32 355 -42 l130 -9 -155 5
c-85 2 -181 7 -212 10 -55 6 -58 5 -58 -15 0 -41 19 -58 97 -87 93 -34 79 -40
-77 -29 l-105 7 -35 41 c-19 23 -77 85 -129 140 l-94 98 34 35 33 34 91 -89
c58 -57 103 -93 125 -99z m-1350 55 c6 -21 9 -41 6 -44 -9 -9 -36 63 -35 94 0
24 1 25 8 8 5 -11 14 -37 21 -58z m730 8 c-14 -43 -34 -58 -24 -18 4 15 11 39
17 53 14 37 21 6 7 -35z m-677 34 c25 -13 67 -50 67 -59 0 -3 -14 -14 -30 -24
l-30 -17 -14 33 c-32 79 -32 87 7 67z m627 -1 c0 -7 -9 -32 -20 -56 l-20 -43
-24 18 c-35 25 -33 32 18 71 32 25 46 28 46 10z m-525 -48 c3 -5 -1 -10 -9
-10 -9 0 -16 5 -16 10 0 6 4 10 9 10 6 0 13 -4 16 -10z m412 4 c-3 -3 -12 -4
-19 -1 -8 3 -5 6 6 6 11 1 17 -2 13 -5z m-353 -37 c9 -14 6 -26 -10 -54 -31
-54 -42 -52 -46 11 -2 43 0 56 12 60 22 6 32 2 44 -17z m324 -40 c3 -61 -8
-72 -32 -34 -26 40 -30 74 -9 86 30 17 38 7 41 -52z m92 -32 c0 -21 -17 -35
-41 -35 -5 0 -9 20 -9 45 l0 45 25 -16 c15 -9 25 -26 25 -39z m-1764 7 c100
-61 97 -56 63 -110 -36 -58 -97 -132 -108 -132 -5 0 -8 37 -8 83 0 62 -5 95
-21 135 -12 29 -22 55 -22 57 0 15 43 0 96 -33z m1258 16 c10 -40 7 -58 -12
-58 -38 0 -54 37 -26 64 21 22 31 20 38 -6z m164 -30 c-6 -66 -60 -198 -98
-238 -51 -55 -83 -33 -115 79 -29 104 -29 101 10 101 38 0 38 -1 50 -92 3 -26
10 -50 15 -53 4 -3 16 19 25 47 29 92 93 207 114 208 2 0 1 -24 -1 -52z m181
-17 c16 -32 39 -92 51 -132 25 -82 33 -78 46 21 7 54 15 64 57 74 32 8 32 5
11 -77 -19 -76 -50 -137 -68 -137 -47 0 -126 124 -147 232 -12 58 -7 94 10 83
6 -3 23 -32 40 -64z m-1804 18 c11 -17 -1 -22 -24 -9 -12 6 -21 17 -21 26 0
11 4 12 19 4 11 -5 23 -15 26 -21z m585 12 c-8 -5 -44 -19 -80 -31 -35 -12
-81 -35 -101 -51 -36 -28 -88 -53 -96 -46 -2 2 14 20 36 40 l40 36 -27 10 -27
9 25 2 c14 0 54 9 90 20 67 19 168 27 140 11z m2694 -28 c-25 -58 -33 -102
-34 -170 0 -80 -15 -82 -69 -10 -39 52 -75 116 -69 122 2 1 21 12 43 24 22 12
58 33 80 46 58 36 69 33 49 -12z m-4264 -15 c24 -54 25 -78 3 -78 -10 0 -28
-3 -40 -6 -21 -6 -23 -3 -23 40 0 49 13 86 31 86 5 0 19 -19 29 -42z m1065 32
c3 -5 2 -10 -4 -10 -5 0 -13 5 -16 10 -3 6 -2 10 4 10 5 0 13 -4 16 -10z
m3305 5 c0 -2 -10 -9 -22 -15 -22 -11 -22 -10 -4 4 21 17 26 19 26 11z m-420
-39 c30 -9 65 -17 79 -17 25 -1 25 -2 -4 -9 -16 -4 -25 -8 -18 -9 6 0 26 -19
43 -41 37 -47 24 -45 -60 8 -30 19 -84 45 -119 57 -126 42 -58 52 79 11z m494
13 c-3 -6 7 -25 22 -42 25 -28 26 -29 4 -12 -14 11 -28 24 -31 29 -4 5 -12 5
-18 2 -18 -12 -34 4 -20 20 13 16 54 19 43 3z m-3399 -39 c24 -26 13 -99 -22
-140 -35 -42 -219 -176 -362 -264 -15 -10 21 57 86 156 58 89 231 268 259 268
11 0 29 -9 39 -20z m3354 -24 c15 -8 45 -34 66 -58 21 -24 101 -109 178 -189
76 -81 145 -156 153 -167 14 -20 14 -20 -29 0 -69 34 -298 168 -349 205 -67
48 -94 85 -102 135 -6 38 -4 45 19 66 31 26 29 26 64 8z m-2929 -174 c0 -14
-113 -95 -179 -128 -118 -58 -195 -91 -226 -98 -27 -6 -32 -2 -52 33 -23 40
-21 51 8 51 10 0 24 8 31 18 15 22 103 52 282 98 72 18 132 33 134 33 1 1 2
-2 2 -7z m960 -102 c22 -9 41 -10 70 -2 22 5 40 8 40 6 0 -2 -10 -12 -22 -24
-16 -14 -35 -20 -69 -20 -52 0 -76 20 -105 89 -20 49 -18 49 21 4 19 -22 48
-46 65 -53z m569 50 c-6 -16 -24 -43 -39 -60 -38 -40 -96 -42 -137 -4 -19 18
-22 24 -10 20 10 -3 36 -9 57 -12 36 -6 42 -3 87 40 26 25 49 46 50 46 1 0 -3
-13 -8 -30z m1125 -30 c224 -57 240 -63 227 -89 -7 -13 -3 -32 15 -70 31 -67
31 -84 2 -76 -60 16 -295 143 -371 200 -91 68 -107 85 -84 85 8 0 103 -22 211
-50z m-3464 -49 c0 -15 -158 -209 -180 -221 -18 -10 -24 -8 -36 7 -20 26 -18
30 27 58 22 14 73 57 112 95 78 75 77 74 77 61z m4118 -26 c58 -54 225 -186
253 -200 32 -17 33 -21 16 -52 -12 -22 -18 -16 -160 127 -81 83 -145 150 -142
150 4 0 18 -11 33 -25z m-2329 -85 c20 0 51 9 70 21 18 11 35 18 37 16 2 -2
-12 -22 -32 -45 -30 -35 -41 -42 -73 -42 -29 0 -44 7 -68 33 -29 30 -53 68
-53 82 0 4 19 -10 42 -29 31 -27 51 -36 77 -36z m540 19 c-13 -23 -40 -51 -59
-62 -34 -19 -37 -19 -71 -3 -22 10 -44 33 -59 59 l-23 42 26 -24 c18 -16 42
-25 76 -29 45 -4 52 -2 87 31 22 19 41 34 43 32 2 -2 -7 -23 -20 -46z m1491
16 c36 -18 36 -21 9 -35 -24 -14 -49 2 -49 31 0 23 3 23 40 4z m-4015 -35
c-24 -25 -41 -36 -44 -28 -2 6 1 14 8 16 7 2 24 15 39 28 42 37 40 28 -3 -16z
m4110 -20 c17 -19 17 -21 1 -39 -23 -25 -75 -46 -85 -35 -5 5 -12 19 -15 30
-5 17 0 24 24 34 16 7 30 16 30 21 0 16 27 9 45 -11z m491 -82 c11 -17 -49 21
-92 59 -37 32 -35 32 23 -7 35 -23 66 -46 69 -52z m-4654 0 c16 -23 26 -48 24
-55 -3 -7 -2 -13 2 -13 4 0 7 -18 8 -41 l1 -40 -36 34 c-20 19 -46 40 -58 46
-19 10 -23 20 -23 61 0 26 3 55 6 64 5 14 8 14 27 1 12 -8 34 -34 49 -57z
m4783 -64 l40 -57 -30 -21 c-16 -12 -45 -36 -63 -53 -19 -18 -36 -33 -39 -33
-2 0 -1 44 3 98 4 64 12 103 22 114 19 22 19 21 67 -48z m-2316 16 c15 0 38 8
51 17 l25 17 -19 -22 c-27 -31 -77 -29 -113 4 l-28 26 29 -21 c16 -12 41 -21
55 -21z m-363 5 c-23 -17 -84 -20 -106 -5 -11 7 -3 9 25 4 22 -3 51 -1 65 5
35 14 38 13 16 -4z m2584 -36 c0 -17 -20 -49 -30 -49 -11 0 -14 43 -3 53 10
11 33 8 33 -4z m-4720 -34 c18 -19 32 -37 29 -39 -6 -5 -98 9 -105 17 -8 7 23
57 34 57 5 0 23 -16 42 -35z m4140 33 c1 -2 3 -31 6 -65 l6 -63 -29 1 c-15 0
-46 6 -67 12 l-39 12 54 52 c46 45 68 61 69 51z m-1640 -40 l35 -4 -28 -8
c-24 -7 -33 -4 -50 15 -12 12 -15 18 -7 12 8 -6 31 -13 50 -15z m-380 -3 c-14
-17 -46 -20 -55 -6 -3 5 9 12 27 14 18 2 35 5 37 5 2 1 -2 -5 -9 -13z m2569
-37 c-9 -16 -14 -19 -17 -9 -2 7 2 17 9 22 20 13 21 11 8 -13z m201 -13 c17
-20 9 -27 -60 -56 -30 -12 -62 -28 -71 -36 -30 -25 -30 -13 1 32 49 71 101 95
130 60z m-4194 -10 c33 -13 35 -18 29 -42 -30 -118 -55 -284 -65 -428 -20
-297 -28 -268 -29 111 0 198 2 364 6 367 9 10 20 9 59 -8z m-710 -6 c3 -6 0
-18 -9 -26 -18 -18 -37 -9 -37 18 0 21 34 27 46 8z m623 -31 c0 -52 -16 -136
-18 -98 0 14 -7 49 -14 78 -15 56 -13 62 15 62 15 0 18 -8 17 -42z m-569 13
c8 -17 7 -20 -10 -18 -20 1 -27 17 -13 30 9 10 11 9 23 -12z m3980 -31 c6 10
17 9 51 -2 40 -13 65 -38 39 -38 -34 0 -120 33 -113 43 5 8 8 7 11 -2 3 -10 6
-11 12 -1z m-3945 -20 c10 -11 16 -20 13 -20 -3 0 -13 9 -23 20 -10 11 -16 20
-13 20 3 0 13 -9 23 -20z m-14 -20 c21 -17 22 -21 9 -30 -20 -13 -60 -13 -60
1 0 5 -10 3 -22 -5 -12 -9 -32 -16 -44 -16 -31 0 -69 33 -61 53 10 27 146 24
178 -3z m4828 13 c23 -6 22 -6 -8 -19 -17 -7 -31 -18 -31 -23 0 -57 159 -276
329 -453 69 -72 117 -129 111 -133 -14 -8 -96 64 -245 216 -104 106 -110 114
-45 58 84 -72 71 -52 -68 101 -78 86 -132 172 -132 212 0 10 12 24 28 32 32
18 30 18 61 9z m-866 -58 c-1 -11 -8 -49 -17 -84 -9 -34 -34 -162 -55 -283
-54 -302 -64 -306 -35 -14 10 96 14 205 11 271 -2 61 -2 116 0 123 3 9 20 12
52 10 39 -3 46 -6 44 -23z m120 -17 c21 -11 18 -16 -54 -111 -21 -29 -44 -68
-49 -87 -6 -19 -14 -118 -17 -219 -4 -130 -9 -177 -15 -160 -10 25 6 310 22
384 4 22 11 72 15 110 9 104 11 107 48 99 18 -3 40 -11 50 -16z m-4098 2 c3
-5 -3 -10 -14 -10 -12 0 -21 5 -21 10 0 6 6 10 14 10 8 0 18 -4 21 -10z m-45
-85 c0 -44 -5 -134 -10 -200 -10 -137 -13 -324 -6 -405 l5 -55 -15 40 c-13 33
-15 80 -13 260 4 298 3 322 -15 350 -9 14 -28 28 -41 31 -24 6 -45 31 -45 52
0 6 31 10 70 9 l70 -1 0 -81z m70 51 c0 -2 -8 -10 -17 -17 -16 -13 -17 -12 -4
4 13 16 21 21 21 13z m4761 -93 c13 -16 12 -17 -3 -4 -17 13 -22 21 -14 21 2
0 10 -8 17 -17z m-16 -159 c43 -24 145 -104 145 -113 0 -22 -161 -29 -178 -8
-10 12 -42 132 -42 156 0 10 6 9 23 -3 12 -9 36 -23 52 -32z m-4260 -109 c-9
-63 -20 -125 -26 -138 -9 -21 -9 -21 -5 3 2 14 12 81 22 149 10 68 20 119 22
113 2 -6 -4 -63 -13 -127z m-445 7 c0 -4 -12 -25 -27 -47 -20 -29 -28 -35 -31
-23 -5 23 26 78 43 78 8 0 15 -3 15 -8z m487 -179 c-2 -134 1 -163 16 -192 23
-45 22 -46 -18 -95 -69 -84 -134 -267 -194 -546 -41 -187 -59 -259 -60 -238
-1 21 50 262 87 408 19 76 27 131 27 201 0 91 -2 98 -32 148 -18 29 -33 58
-33 65 0 7 12 23 26 37 32 29 128 172 149 222 8 19 18 61 21 91 4 31 8 56 10
56 2 0 2 -71 1 -157z m3388 -98 c23 -60 78 -157 100 -175 21 -18 19 -29 -10
-52 -50 -39 -69 -94 -70 -193 0 -49 3 -119 7 -155 7 -73 -1 -47 -27 89 -23
119 -60 231 -94 281 l-29 44 22 45 c28 56 52 152 63 246 l8 70 5 -75 c3 -41
15 -97 25 -125z m1395 54 c56 -57 82 -98 43 -68 -107 82 -148 129 -112 129 5
0 36 -27 69 -61z m-5062 -490 c3 -100 0 -112 -90 -341 -35 -90 -125 -232 -150
-236 -17 -3 -18 10 -17 175 1 98 4 188 7 200 9 31 225 303 237 299 6 -1 11
-45 13 -97z m3940 -91 l100 -153 4 -177 c5 -197 2 -207 -50 -140 -54 69 -110
186 -152 322 l-42 135 12 83 c7 45 16 82 20 82 4 0 53 -69 108 -152z m-3832
125 c-2 -10 -8 -42 -11 -72 -9 -67 -43 -170 -79 -236 -15 -28 -25 -43 -23 -35
2 8 26 93 53 188 26 94 52 172 57 172 4 0 6 -8 3 -17z m3658 -197 c15 -71 25
-131 22 -133 -10 -10 -58 165 -63 227 -6 96 10 58 41 -94z m-46 -101 c6 -27
20 -94 31 -148 12 -55 20 -113 20 -130 -2 -28 -2 -29 -6 -7 -3 14 -18 90 -34
170 -16 79 -29 151 -29 159 0 26 8 7 18 -44z m-3758 -345 c-14 -26 -50 -26
-100 0 l-40 20 41 37 c23 21 55 62 73 93 l31 55 3 -92 c2 -53 -2 -102 -8 -113z
m3971 38 l40 -37 -40 -20 c-98 -51 -124 -14 -104 147 l6 53 28 -53 c16 -29 47
-70 70 -90z m-3916 -38 c-9 -41 -17 -33 -9 9 4 17 9 30 11 27 3 -2 2 -19 -2
-36z m3767 -4 c2 -19 0 -32 -4 -30 -8 5 -12 64 -4 64 2 0 6 -15 8 -34z m58
-86 c0 -5 -4 -10 -10 -10 -5 0 -10 5 -10 10 0 6 5 10 10 10 6 0 10 -4 10 -10z
m-3961 -16 l39 -15 -18 -37 c-10 -20 -32 -76 -49 -124 -29 -84 -57 -148 -65
-148 -2 0 2 17 10 38 18 50 17 92 -3 166 -21 82 -13 136 22 136 14 0 42 -7 64
-16z m4131 -56 c0 -21 -5 -69 -12 -108 -11 -62 -10 -76 5 -117 22 -60 15 -67
-11 -11 -52 110 -111 252 -107 256 3 3 28 13 57 23 60 20 68 15 68 -43z" />
                <path d="M7685 5160 c-7 -23 2 -43 16 -35 12 8 12 55 0 55 -5 0 -12 -9 -16
-20z" />
                <path d="M4250 4820 c-40 -29 -49 -40 -34 -40 22 0 104 56 104 71 0 16 -13 10
-70 -31z" />
                <path d="M5930 4835 c21 -26 111 -88 117 -81 9 9 -14 32 -66 65 -52 34 -70 39
-51 16z" />
                <path d="M7910 3405 c0 -6 20 -31 45 -55 25 -24 45 -41 45 -38 0 12 -89 103
-90 93z" />
                <path d="M3318 2923 c12 -2 32 -2 45 0 12 2 2 4 -23 4 -25 0 -35 -2 -22 -4z" />
                <path d="M6760 2900 c8 -5 33 -9 55 -9 35 1 37 2 15 9 -14 4 -38 8 -55 9 -23
0 -26 -2 -15 -9z" />
                <path d="M8140 3176 c0 -2 8 -10 18 -17 15 -13 16 -12 3 4 -13 16 -21 21 -21
13z" />
        </g>
</svg>