<svg xmlns="http://www.w3.org/2000/svg" viewBox="0 0 232 100"><circle cx="15" cy="84.5" r="15" fill="#FFF"/><circle cx="96" cy="15" r="15" fill="#FFF"/><path fill="#FFF" d="M81 40c0-2 1.5-3.6 3.6-3.6H108c2 0 3.6 1.6 3.6 3.6v41c0 2-1.6 3.6-3.6 3.6H84.6c-2 0-3.6-1.6-3.6-3.6zm-19.5-3.65c2 0 3.6 1.6 3.6 3.6v29.3c0 16.7-13.5 30.3-30 30.5V69.3L35 39.9c0-2 1.6-3.6 3.6-3.6h23.3zm67 3.45c0-2 1.6-3.6 3.6-3.6h13.3l.5.1c15 .2 27.2 12.3 27.6 27.3v17.3c0 2-1.6 3.6-3.6 3.6h-37.8c-2 0-3.6-1.6-3.6-3.6zM207.2 84h-.2c-12.6-.7-22.5-11.2-22.5-24 0-13.3 10.8-24.1 24.1-24.1 12.8 0 23.3 10 24 22.6h.1v21.9c0 2-1.6 3.6-3.6 3.6z"/></svg>