<svg height="800" width="800" xmlns="http://www.w3.org/2000/svg" viewBox="0 0 512 512" xml:space="preserve">
	<path style="fill:#e0b76e" d="M376.808 187.877 256 512 28.996 384.006V127.994z" />
	<path style="fill:#f4ce8f" d="M256 0 28.996 127.994 256 256v256l227.004-127.994V127.994z" />
	<path style="fill:#f2ca7f" d="M256 256v256l227.004-127.994V127.994z" />
	<path style="fill:#8cc1ea"
		d="M174.431 466.018V210.006l93.758-52.872h.012-76.796l.389-36.121.006-.005-87.599 49.392v255.126" />
	<path style="fill:#79b1d6" d="M174.431 466.018V210.006l-70.23-39.606v255.126" />
	<path style="fill:#8cc1ea" d="m331.708 42.166-93.759 52.873h-.012 76.797l-.389 36.121-.006.004 87.598-49.391" />
	<path style="fill:#898686"
		d="m374.872 292.189-33.941-23.586-35.024 62.364 25.784-14.498v105.653l17.943-10.12V306.381zm-4.554 69.541 33.941 23.586 35.024-62.364-25.785 14.498V231.797l-17.943 10.12V347.54z" />
</svg>