<svg xmlns="http://www.w3.org/2000/svg" viewBox="0 0 511.98 511.98" xml:space="preserve"><path style="fill:#f5ba45" d="M255.99 85.324c-17.671 0-31.999 14.328-31.999 31.999s14.328 31.999 31.999 31.999c17.672 0 31.999-14.328 31.999-31.999-.002-17.671-14.328-31.999-31.999-31.999m0 42.671c-5.882 0-10.664-4.797-10.664-10.671 0-5.891 4.781-10.672 10.664-10.672s10.665 4.781 10.665 10.672c-.001 5.874-4.783 10.671-10.665 10.671"/><path style="fill:#fecd57" d="M255.99 42.654c-17.672 0-32 14.328-32 31.999s14.328 31.999 31.999 31.999c17.672 0 31.999-14.328 31.999-31.999s-14.327-31.999-31.998-31.999m0 42.67c-5.882 0-10.664-4.781-10.664-10.671 0-5.875 4.781-10.656 10.664-10.656s10.665 4.781 10.665 10.656c-.001 5.891-4.783 10.671-10.665 10.671"/><path style="fill:#f5ba45" d="M255.99 0c-17.672 0-32 14.312-32 31.998 0 17.672 14.328 31.999 32 31.999s31.999-14.328 31.999-31.999C287.987 14.312 273.661 0 255.99 0m0 42.654c-5.882 0-10.664-4.781-10.664-10.656 0-5.89 4.781-10.671 10.664-10.671s10.665 4.781 10.665 10.671c-.001 5.875-4.783 10.656-10.665 10.656"/><path style="fill:#fecd57" d="M255.99 127.995c-29.452 0-53.334 23.874-53.334 53.326s23.882 53.326 53.334 53.326c29.454 0 53.342-23.874 53.342-53.326s-23.889-53.326-53.342-53.326m0 85.325c-17.64 0-31.999-14.359-31.999-31.999s14.359-31.999 31.999-31.999c17.657 0 31.999 14.358 31.999 31.999s-14.343 31.999-31.999 31.999"/><path style="fill:#fecd57" d="M255.99 501.309c-39.889 0-77.388-15.53-105.589-43.733-28.203-28.217-43.741-65.716-43.741-105.589 0-39.89 15.539-77.388 43.741-105.606 28.202-28.202 65.701-43.733 105.589-43.733s77.387 15.531 105.59 43.733c28.201 28.218 43.748 65.716 43.748 105.606 0 39.873-15.547 77.372-43.748 105.589-28.204 28.203-65.701 43.733-105.59 43.733"/><path style="fill:#f5ba45" d="M255.99 202.648c-5.89 0-10.664 4.781-10.664 10.672 0 5.89 4.773 10.671 10.664 10.671s10.665-4.781 10.665-10.671c-.001-5.891-4.775-10.672-10.665-10.672m0 277.334c-5.89 0-10.664 4.766-10.664 10.655 0 5.891 4.773 10.672 10.664 10.672s10.665-4.781 10.665-10.672c-.001-5.889-4.775-10.655-10.665-10.655m-74.663-257.319c-5.102 2.938-6.852 9.469-3.906 14.562 2.945 5.109 9.468 6.859 14.57 3.906s6.852-9.468 3.906-14.578c-2.945-5.093-9.469-6.843-14.57-3.89m138.66 240.163c-5.094 2.938-6.844 9.469-3.906 14.562 2.938 5.109 9.467 6.859 14.561 3.906 5.109-2.938 6.859-9.469 3.906-14.562-2.937-5.109-9.469-6.844-14.561-3.906M141.236 273.412c-5.102-2.953-11.625-1.203-14.57 3.906-2.945 5.094-1.195 11.624 3.906 14.562 5.101 2.953 11.625 1.203 14.57-3.891 2.946-5.108 1.196-11.624-3.906-14.577m240.169 138.667c-5.109-2.953-11.623-1.203-14.576 3.906-2.938 5.094-1.188 11.624 3.906 14.562 5.107 2.953 11.623 1.203 14.576-3.906 2.953-5.094 1.203-11.625-3.906-14.562m-264.074-70.764c-5.891 0-10.672 4.766-10.672 10.672 0 5.874 4.781 10.655 10.672 10.655 5.89 0 10.664-4.781 10.664-10.655-.002-5.906-4.774-10.672-10.664-10.672m277.308 0c-5.875 0-10.656 4.766-10.656 10.672 0 5.874 4.781 10.655 10.656 10.655 5.906 0 10.688-4.781 10.688-10.655.001-5.906-4.78-10.672-10.688-10.672m-264.067 70.764c-5.102 2.938-6.852 9.468-3.906 14.562 2.945 5.109 9.468 6.859 14.57 3.906 5.102-2.938 6.852-9.468 3.906-14.562-2.945-5.109-9.468-6.859-14.57-3.906M381.405 291.88c5.109-2.938 6.859-9.468 3.906-14.562-2.953-5.109-9.469-6.859-14.576-3.906-5.094 2.953-6.844 9.469-3.906 14.577 2.954 5.094 9.468 6.844 14.576 3.891M191.992 462.826c-5.102-2.938-11.625-1.203-14.57 3.906-2.945 5.094-1.195 11.625 3.906 14.562 5.101 2.953 11.625 1.203 14.57-3.891 2.946-5.108 1.196-11.64-3.906-14.577m127.995-221.695c5.092 2.953 11.623 1.203 14.561-3.906 2.953-5.093 1.203-11.625-3.906-14.562-5.094-2.953-11.623-1.203-14.561 3.891-2.938 5.109-1.188 11.624 3.906 14.577"/><path style="fill:#424953" d="M323.861 404.782v-.016l-57.207-57.201v-80.919c0-5.891-4.773-10.656-10.665-10.656-5.89 0-10.664 4.766-10.664 10.656v85.341c0 2.937 1.195 5.608 3.125 7.53l60.334 60.343c4.172 4.171 10.922 4.155 15.076 0 4.173-4.172 4.173-10.922.001-15.078"/><path style="fill:#fecd57" d="M266.654 170.649h-21.328c-5.891 0-10.671 4.781-10.671 10.672 0 5.89 4.781 10.671 10.671 10.671v10.656h21.328v-10.656c5.898 0 10.68-4.781 10.68-10.671-.001-5.891-4.782-10.672-10.68-10.672"/><path style="fill:#f5ba45" d="M255.99 191.992c-88.364 0-159.994 71.623-159.994 159.995 0 88.355 71.63 159.993 159.994 159.993 88.372 0 159.995-71.638 159.995-159.993-.002-88.372-71.624-159.995-159.995-159.995m98.058 258.037c-12.75 12.734-27.594 22.734-44.092 29.719-17.078 7.234-35.248 10.89-53.967 10.89-18.726 0-36.889-3.655-53.966-10.89-16.508-6.984-31.343-16.984-44.084-29.719-12.742-12.748-22.742-27.576-29.726-44.075-7.219-17.094-10.882-35.249-10.882-53.967 0-18.734 3.664-36.89 10.882-53.967 6.984-16.515 16.984-31.343 29.726-44.093 12.741-12.734 27.577-22.733 44.084-29.718 17.078-7.233 35.24-10.89 53.966-10.89 18.719 0 36.889 3.656 53.967 10.89 16.498 6.984 31.342 16.984 44.092 29.718 12.734 12.75 22.732 27.578 29.717 44.093 7.219 17.077 10.875 35.232 10.875 53.967 0 18.718-3.656 36.873-10.875 53.967-6.985 16.499-16.982 31.327-29.717 44.075"/></svg>