<svg xmlns="http://www.w3.org/2000/svg" viewBox="0 0 512 512" xml:space="preserve">
    <path style="fill:#3f556b" d="M512 104V56c0-8.84-7.16-16-16-16H16C7.16 40 0 47.16 0 56v48z" />
    <path style="fill:#e2e7f0" d="M0 456V104h512v352c0 8.84-7.16 16-16 16H16c-8.84 0-16-7.16-16-16" />
    <circle style="fill:#f26a56" cx="40" cy="72" r="8" />
    <circle style="fill:#f6b545" cx="72" cy="72" r="8" />
    <circle style="fill:#89c763" cx="104" cy="72" r="8" />
    <path style="fill:#4c9cd6"
        d="M72 144h368c4.416 0 8 3.584 8 8v104c0 4.416-3.584 8-8 8H72c-4.416 0-8-3.584-8-8V152c0-4.416 3.584-8 8-8" />
    <path style="fill:#748b9e"
        d="M232 320H72c-4.416 0-8-3.584-8-8s3.584-8 8-8h160c4.416 0 8 3.584 8 8s-3.584 8-8 8m0 32H72c-4.416 0-8-3.584-8-8s3.584-8 8-8h160c4.416 0 8 3.584 8 8s-3.584 8-8 8m0 32H72c-4.416 0-8-3.584-8-8s3.584-8 8-8h160c4.416 0 8 3.584 8 8s-3.584 8-8 8m-64 32H72c-4.416 0-8-3.584-8-8s3.584-8 8-8h96c4.416 0 8 3.584 8 8s-3.584 8-8 8m272-96H280c-4.416 0-8-3.584-8-8s3.584-8 8-8h160c4.416 0 8 3.584 8 8s-3.584 8-8 8m0 32H280c-4.416 0-8-3.584-8-8s3.584-8 8-8h160c4.416 0 8 3.584 8 8s-3.584 8-8 8m0 32H280c-4.416 0-8-3.584-8-8s3.584-8 8-8h160c4.416 0 8 3.584 8 8s-3.584 8-8 8m-64 32h-96c-4.416 0-8-3.584-8-8s3.584-8 8-8h96c4.416 0 8 3.584 8 8s-3.584 8-8 8" />
    <path style="fill:#576d7e"
        d="M144 56h336c4.416 0 8 3.584 8 8v16c0 4.416-3.584 8-8 8H144c-4.416 0-8-3.584-8-8V64c0-4.416 3.584-8 8-8" />
</svg>