<svg xmlns="http://www.w3.org/2000/svg" viewBox="0 0 32 32" xml:space="preserve"><path d="M29 15c-1 0-2-.4-2.7-1.1l-.6-.6c-.3-.3-.8-.4-1.2-.2l-2.6 1.3 1.9-2.9c.1-.1.1-.3.2-.4l.5-3.1c.3-1.6 1-3.1 2.2-4.2.4-.4.4-1 0-1.4s-1-.4-1.4 0c-1.5 1.5-2.4 3.3-2.7 5.3l-.5 3-.2.3c-.8-3.6-3.9-5.5-5.6-6h-.6c-1.7.5-4.8 2.3-5.6 5.9l-.1-.3-.5-3c-.3-2-1.3-3.9-2.7-5.3-.4-.4-1-.4-1.4 0s-.4 1 0 1.4C6.5 4.9 7.2 6.3 7.5 8l.5 3.2c0 .1.1.3.2.4l1.9 2.9-2.6-1.3c-.4-.2-.8-.1-1.2.2l-.6.6C5 14.6 4 15 3 15c-.6 0-1 .4-1 1s.4 1 1 1c1.5 0 3-.6 4.1-1.7l.1-.1 2.7 1.4-2.1.4c-.3.1-.6.3-.7.5l-1.3 2.6c-.4.7-1 1.3-1.7 1.7l-.6.3c-.5.2-.7.8-.4 1.3q.3.6.9.6c.2 0 .3 0 .4-.1l.6-.3c1.1-.6 2-1.5 2.6-2.6l1.1-2.1 1.3-.3-.7.7c-.1.1-.2.3-.3.4l-1.4 4.9c-.3 1.1-1.1 2-2.1 2.5-.5.2-.7.8-.4 1.3q.3.6.9.6c.2 0 .3 0 .4-.1 1.5-.8 2.7-2.1 3.1-3.8l1.3-4.6 1.3-1.3c0 1.2.6 2.2 1.5 2.9-.4.6-.6 1.2-.6 1.9 0 .6.4 1 1 1s1-.4 1-1 .4-1 1-1 1 .4 1 1 .4 1 1 1 1-.4 1-1q0-1.05-.6-1.8c.9-.7 1.4-1.7 1.5-2.9l1.3 1.3 1.3 4.6c.5 1.6 1.6 3 3.1 3.8h.4q.6 0 .9-.6c.2-.5 0-1.1-.4-1.3-1-.5-1.8-1.4-2.1-2.5L23 19.7c0-.2-.1-.3-.3-.4l-.7-.7 1.3.3 1.1 2.1c.6 1.1 1.5 2 2.6 2.6l.6.3c.1.1.2.1.4.1q.6 0 .9-.6c.2-.5 0-1.1-.4-1.3l-.6-.3c-.7-.4-1.3-1-1.7-1.7l-1.3-2.6c-.1-.3-.4-.5-.7-.5l-2.1-.4 2.7-1.4.1.1C26 16.4 27.5 17 29 17c.6 0 1-.4 1-1s-.4-1-1-1"/></svg>